<?xml version="1.0" encoding="UTF-8"?>
<!DOCTYPE svg PUBLIC "-//W3C//DTD SVG 1.1//EN" "http://www.w3.org/Graphics/SVG/1.1/DTD/svg11.dtd">
<svg xmlns="http://www.w3.org/2000/svg" version="1.1" width="1080px" height="1080px" style="shape-rendering:geometricPrecision; text-rendering:geometricPrecision; image-rendering:optimizeQuality; fill-rule:evenodd; clip-rule:evenodd" xmlns:xlink="http://www.w3.org/1999/xlink">
<g><path style="opacity:1" fill="#fefefe" d="M -0.5,-0.5 C 359.5,-0.5 719.5,-0.5 1079.5,-0.5C 1079.5,359.5 1079.5,719.5 1079.5,1079.5C 719.5,1079.5 359.5,1079.5 -0.5,1079.5C -0.5,719.5 -0.5,359.5 -0.5,-0.5 Z"/></g>
<g><path style="opacity:1" fill="#36b08d" d="M 559.5,103.5 C 654.833,166.833 750.167,230.167 845.5,293.5C 904.346,332.837 963.346,372.004 1022.5,411C 1041.38,427.001 1046.88,446.835 1039,470.5C 1018.82,501.528 998.656,532.528 978.5,563.5C 916.847,656.13 855.18,748.797 793.5,841.5C 748.114,910.391 702.114,978.891 655.5,1047C 640.246,1059.06 623.246,1062.4 604.5,1057C 568.951,1033.28 533.284,1009.78 497.5,986.5C 415.795,931.474 333.795,876.808 251.5,822.5C 178.987,774.163 106.32,725.996 33.5,678C 19.3598,661.628 15.8598,643.128 23,622.5C 48.103,584.614 72.9363,546.614 97.5,508.5C 157.277,420.382 216.277,331.715 274.5,242.5C 317.137,179.01 359.637,115.343 402,51.5C 419.251,33.8165 439.417,29.6498 462.5,39C 494.862,60.5102 527.195,82.0102 559.5,103.5 Z"/></g>
<g><path style="opacity:1" fill="#264c57" d="M 845.5,293.5 C 750.167,230.167 654.833,166.833 559.5,103.5C 599.286,83.7747 639.286,64.2747 679.5,45C 702.495,40.5816 720.995,47.7482 735,66.5C 772.389,141.944 809.222,217.61 845.5,293.5 Z"/></g>
<g><path style="opacity:1" fill="#264c57" d="M 274.5,242.5 C 216.277,331.715 157.277,420.382 97.5,508.5C 80.0113,472.189 62.5113,435.855 45,399.5C 40.5675,376.458 47.7342,357.958 66.5,344C 135.737,309.881 205.07,276.048 274.5,242.5 Z"/></g>
<g><path style="opacity:1" fill="#264c57" d="M 978.5,563.5 C 997.261,602.023 1015.76,640.69 1034,679.5C 1038.42,702.577 1031.26,721.077 1012.5,735C 939.723,771.056 866.723,806.556 793.5,841.5C 855.18,748.797 916.847,656.13 978.5,563.5 Z"/></g>
<g><path style="opacity:1" fill="#264c57" d="M 251.5,822.5 C 333.795,876.808 415.795,931.474 497.5,986.5C 464.76,1002.87 431.76,1018.7 398.5,1034C 376.774,1038.05 358.941,1031.55 345,1014.5C 313.55,950.601 282.383,886.601 251.5,822.5 Z"/></g>
</svg>
